External Loads File
version=1
nRows=46
nColumns=13
Range=5.000000e-03-10 seconds
endheader
time 	forceRightX 	forceRightY 	forceRightZ 	pointRightX 	pointRightY 	pointRightZ 	forceLeftX 	forceLeftY 	forceLeftZ 	pointLeftX 	pointLeftY 	pointLeftZ 		
7.505000 -100.701769 599.725484 -0.000000 0.359856 0.274068 -0.160252 38.089276 20.360584 -0.000000 0.093714 0.367563 -0.398381
7.510000 -77.465692 607.173824 -0.000000 0.356201 0.263811 -0.159901 36.110150 12.050751 -0.000000 0.096969 0.378278 -0.398512
7.515000 -52.583767 611.496099 -0.000000 0.352150 0.253694 -0.159824 33.464398 2.409690 -0.000000 0.100749 0.388873 -0.398533
7.520000 -27.420542 612.251588 -0.000000 0.347540 0.244000 -0.159671 30.050088 -8.151638 -0.000000 0.104972 0.399234 -0.398542
7.525000 -2.116611 609.301900 -0.000000 0.342410 0.234418 -0.159296 25.790324 -19.161792 -0.000000 0.109697 0.409325 -0.398639
7.530000 22.050657 602.639628 -0.000000 0.336773 0.225232 -0.159014 20.684267 -29.986483 -0.000000 0.114876 0.419102 -0.398667
7.535000 44.533645 592.458007 -0.000000 0.330753 0.216532 -0.158867 14.817617 -39.955480 -0.000000 0.120673 0.428571 -0.398717
7.540000 64.168061 579.142822 -0.000000 0.324490 0.208144 -0.158549 8.402682 -48.372454 -0.000000 0.126692 0.437527 -0.398719
7.545000 82.133946 562.926102 -0.000000 0.317686 0.200218 -0.158612 1.495083 -54.616528 -0.000000 0.133577 0.446087 -0.399316
7.550000 96.450082 544.462475 -0.000000 0.310582 0.192740 -0.158396 -5.559830 -58.086469 -0.000000 0.140318 0.454119 -0.398566
7.555000 108.656074 523.974872 -0.000000 0.303114 0.185817 -0.158176 -12.687641 -58.288827 -0.000000 0.147703 0.461724 -0.398272
7.560000 119.226579 501.838106 -0.000000 0.295250 0.179442 -0.157859 -19.638846 -54.847864 -0.000000 0.155994 0.468487 -0.399084
7.565000 126.474952 479.040896 -0.000000 0.287080 0.173734 -0.157556 -25.857503 -47.734867 -0.000000 0.163646 0.474866 -0.398505
7.570000 132.622844 455.656822 -0.000000 0.278629 0.168529 -0.157218 -31.215408 -37.094442 -0.000000 0.171950 0.480525 -0.398404
7.575000 137.706970 432.144951 -0.000000 0.269880 0.163923 -0.156925 -35.404566 -23.444800 -0.000000 0.180531 0.485670 -0.398400
7.580000 141.939352 408.724189 -0.000000 0.260919 0.159907 -0.156593 -38.237098 -7.499220 -0.000000 0.189333 0.490120 -0.398663
7.585000 145.424751 385.417379 -0.000000 0.251763 0.156604 -0.156311 -39.633176 9.920534 -0.000000 0.198196 0.493616 -0.399070
7.590000 148.279385 362.037704 -0.000000 0.242347 0.153935 -0.156133 -39.643798 27.961491 -0.000000 0.206832 0.496555 -0.398972
7.595000 150.379488 338.336191 -0.000000 0.233057 0.152116 -0.156233 -38.477813 45.797672 -0.000000 0.215411 0.499233 -0.398918
7.600000 151.855936 313.866254 -0.000000 0.223676 0.150960 -0.156274 -36.441388 62.837964 -0.000000 0.223939 0.501107 -0.398873
7.605000 152.181155 288.493069 -0.000000 0.214346 0.150538 -0.156409 -34.042003 78.789521 -0.000000 0.232163 0.502323 -0.398582
7.610000 151.303214 261.962843 -0.000000 0.205107 0.150808 -0.156557 -31.762900 93.850849 -0.000000 0.240256 0.502781 -0.398655
7.615000 148.888946 234.344076 -0.000000 0.196294 0.151847 -0.156279 -30.169154 108.546725 -0.000000 0.248232 0.502176 -0.398892
7.620000 145.097640 205.673276 -0.000000 0.187314 0.153390 -0.156629 -29.620123 123.654904 -0.000000 0.255899 0.500732 -0.399465
7.625000 139.574511 176.678339 -0.000000 0.178696 0.155594 -0.156714 -30.776600 139.885391 -0.000000 0.262988 0.498437 -0.399678
7.630000 132.856214 147.802857 -0.000000 0.170354 0.158702 -0.156859 -33.822079 157.954197 -0.000000 0.269821 0.495201 -0.400130
7.635000 125.240950 119.864145 -0.000000 0.162261 0.162406 -0.157004 -39.054818 178.382424 -0.000000 0.276452 0.491075 -0.400706
7.640000 117.070539 93.738988 -0.000000 0.154387 0.166561 -0.157128 -46.734782 201.467194 -0.000000 0.282937 0.486102 -0.401189
7.645000 108.662105 70.286878 -0.000000 0.146848 0.171281 -0.157088 -57.077126 227.161281 -0.000000 0.289293 0.480462 -0.401708
7.650000 100.404938 50.072174 -0.000000 0.139590 0.176496 -0.157078 -69.812088 255.086510 -0.000000 0.295735 0.474063 -0.402150
7.655000 92.574060 33.507943 -0.000000 0.132594 0.182226 -0.157115 -84.561744 284.421230 -0.000000 0.302160 0.466912 -0.402678
7.660000 85.381101 20.792353 -0.000000 0.125998 0.188452 -0.156959 -101.017498 313.913368 -0.000000 0.308560 0.459396 -0.403235
7.665000 79.014313 11.705955 -0.000000 0.119726 0.195138 -0.156897 -118.316877 342.314107 -0.000000 0.315075 0.451381 -0.403599
7.670000 73.526138 5.940617 -0.000000 0.113906 0.202196 -0.156743 -136.145922 368.326026 -0.000000 0.321508 0.443035 -0.403813
7.675000 68.871642 2.909451 -0.000000 0.108506 0.209696 -0.156565 -154.041278 391.006923 -0.000000 0.327676 0.434564 -0.403619
7.680000 64.886395 1.821604 -0.000000 0.103740 0.217623 -0.156502 -171.390918 409.889459 -0.000000 0.333909 0.426024 -0.403169
7.685000 61.322043 1.847885 -0.000000 0.099381 0.225870 -0.156557 -187.937531 424.846161 -0.000000 0.339545 0.417049 -0.402895
7.690000 57.884810 2.206526 -0.000000 0.095700 0.234366 -0.156515 -203.711085 436.098812 -0.000000 0.344744 0.407754 -0.402875
7.695000 54.258736 2.155633 -0.000000 0.092537 0.243142 -0.156573 -218.205644 444.507880 -0.000000 0.349672 0.398100 -0.402892
7.700000 50.133094 1.206726 -0.000000 0.089949 0.252187 -0.156575 -231.494569 450.894232 -0.000000 0.354236 0.388200 -0.402938
7.705000 45.264228 -1.000930 -0.000000 0.087851 0.261656 -0.156538 -242.853040 456.523781 -0.000000 0.358626 0.377996 -0.403012
7.710000 39.528077 -4.470188 -0.000000 0.086302 0.271361 -0.156496 -252.607035 462.019217 -0.000000 0.362416 0.367576 -0.402851
7.715000 32.947512 -9.061580 -0.000000 0.085283 0.281251 -0.156371 -260.533396 468.090809 -0.000000 0.365597 0.357052 -0.402373
7.720000 25.659466 -14.519299 -0.000000 0.084562 0.291565 -0.156516 -265.891754 475.545816 -0.000000 0.368034 0.346468 -0.402627
7.725000 17.920888 -20.453289 -0.000000 0.084280 0.301962 -0.156671 -268.759575 484.575641 -0.000000 0.369767 0.335707 -0.402835
7.730000 10.052925 -26.505582 -0.000000 0.084496 0.312689 -0.156846 -268.762856 495.468604 -0.000000 0.370961 0.324966 -0.402799
